# xmcd CD database file
# Copyright (C) 1993-1998 Ti Kan
#
# Track frame offsets:
#  97300
#  109852
#  126402
#  140652
#  158592
#  169805
#  186862
#  198985
#  213495
#  227262
#  244415
#  253872
#  266335
#
# Disc length: 3712 seconds
#
# Revision: 1
# Processed by: cddbd v1.4b41PL1 Copyright (c) Steve Scherf et al.
# Submitted via: CDWizzard Release:4.35
#
DISCID=cd096f0d
DTITLE=Leon Russell - Legend in My Time - Hank Wilson Vol. III
DYEAR=1900
DGENRE=
TTITLE0=Sixteen Tons
TTITLE1=Night Life
TTITLE2=Act Naturally
TTITLE3=Sweet Dreams
TTITLE4=Daddy Sang Bass
TTITLE5=He Stopped Loving Her Today
TTITLE6=Mama Don't let Your Babies Grown Up to Be Cowboys
TTITLE7=Funny How Time Slips Away
TTITLE8=Okie From Muskogee
TTITLE9=Crazy
TTITLE10=Love's Gonna Live Here
TTITLE11=He'll Have to Go
TTITLE12=Legend in My Time
EXTD=
EXTT0=
EXTT1=
EXTT2=
EXTT3=
EXTT4=
EXTT5=
EXTT6=
EXTT7=
EXTT8=
EXTT9=
EXTT10=
EXTT11=
EXTT12=
PLAYORDER=
